# xmcd
# 
# Track frame offsets:
#     150
#     22587
#     41130
#     59162
# 
# Disc length: 1103
# 
# Revision: 1
# Processed by: cddbd v1.5.2PL0 Copyright (c) Steve Scherf et al.
# Submitted via: BonkEnc v1.0
# 
DISCID=2e044d04
DTITLE=Mikael Teger - Nå´n Annanstanns
DYEAR=1993
DGENRE=Pop
TTITLE0=Nån Annanstanns
TTITLE1=Luften hon andas
TTITLE2=Andas Ut
TTITLE3=I Natt Har Jag Spelat För Djävulen
EXTD=
EXTT0=
EXTT1=
EXTT2=
EXTT3=
PLAYORDER=
